<?xml version="1.0" encoding="UTF-8" standalone="no"?>
<!DOCTYPE svg PUBLIC "-//W3C//DTD SVG 1.1//EN" "http://www.w3.org/Graphics/SVG/1.1/DTD/svg11.dtd">
<svg width="100%" height="100%" viewBox="0 0 500 310" version="1.1" xmlns="http://www.w3.org/2000/svg" xmlns:xlink="http://www.w3.org/1999/xlink" xml:space="preserve" xmlns:serif="http://www.serif.com/" style="fill-rule:evenodd;clip-rule:evenodd;">
    <g id="harmony-music-academy-logo" transform="matrix(0.997028,0,0,1.00969,1.96074,-6.05812e-06)">
        <g>
            <clipPath id="_clip1">
                <rect x="73.333" y="17.333" width="346.667" height="117.667"/>
            </clipPath>
            <g clip-path="url(#_clip1)">
                <path d="M384.479,81.125L384.031,80.901C385.036,79.12 385.703,77.563 386.146,76.672C391.156,65.099 391.932,59.089 405.068,62.094C405.734,62.208 431.552,35.052 413.188,18.583C411.297,19.365 401.729,24.37 389.042,31.156C388.932,31.156 388.818,31.047 388.594,30.938C386.594,28.932 392.156,27.708 389.932,23.37C386.818,17.135 376.245,23.37 379.026,28.708C381.474,33.271 385.813,29.49 386.036,32.271C386.036,32.495 385.927,32.719 385.594,32.938L385.479,32.938C382.031,34.833 378.359,36.724 374.573,38.724C374.464,38.505 374.354,38.172 373.906,37.724C374.573,35.5 377.911,34.385 375.464,30.604C372.016,25.26 361.891,30.938 365.005,36.5C367.677,41.286 371.568,37.057 371.682,39.839C371.568,40.063 371.568,40.172 371.568,40.281C367.786,42.286 363.891,44.401 360.109,46.406C358.661,44.068 359.219,45.292 360.885,43.068C363.333,39.615 360.219,33.943 354.547,36.5C346.755,39.948 349.87,47.74 356.656,45.958L357.547,47.74C341.969,56.083 326.833,64.323 317.49,69.328L318.042,70.443L316.932,68.547C322.495,62.875 317.375,57.531 311.479,60.536C308.583,61.984 306.917,64.323 307.693,66.771C308.917,70.661 311.813,70.109 314.26,69.995L314.818,70.885C312.594,72.109 310.813,73 309.589,73.667C306.807,75.115 304.578,77.005 304.469,80.458C304.021,92.031 309.807,86.464 291.339,103.604C288.776,105.938 264.63,129.641 253.833,140.214L238.589,140.214C227.797,129.755 203.646,106.052 201.089,103.604C182.724,86.464 188.516,92.031 187.958,80.458C187.844,77.12 185.62,75.224 182.839,73.667C181.615,73 179.943,72.109 177.609,70.885L178.161,69.995C180.615,70.219 183.505,70.776 184.729,66.771C185.51,64.323 183.839,62.094 180.948,60.536C175.047,57.531 169.927,62.984 175.495,68.547L174.38,70.443L174.938,69.328C165.589,64.323 150.344,56.083 134.875,47.74L135.766,45.958C142.552,47.74 145.672,39.948 137.88,36.5C132.094,33.943 129.089,39.615 131.536,43.068C133.094,45.292 133.76,44.068 132.318,46.406C128.422,44.292 124.635,42.286 120.854,40.281C120.854,40.172 120.854,40.063 120.745,39.839C120.854,37.167 124.75,41.286 127.422,36.5C130.536,31.047 120.297,25.26 116.958,30.604C115.068,34.495 118.516,35.609 119.188,37.833C118.849,38.281 118.74,38.615 118.516,38.839C114.734,36.833 111.063,34.833 107.609,33.052L107.5,33.052C107.276,32.828 107.057,32.495 107.057,32.38C107.276,29.599 111.62,33.271 114.068,28.823C116.958,23.479 106.276,17.359 103.161,23.479C100.938,27.818 106.5,29.156 104.495,31.047C104.276,31.156 104.161,31.156 104.052,31.271C91.474,24.37 81.906,19.365 80.016,18.583C61.651,35.052 87.469,62.318 88.135,62.094C101.271,59.089 102.047,64.99 107.057,76.672C107.276,77.12 107.5,77.786 107.948,78.563L103.385,81.234L103.385,140.104L76.896,140.104L76.896,144.219L413.188,144.219L413.188,140.104L384.479,140.104L384.479,81.125ZM169.484,78.786L174.714,73.448C176.938,77.229 173.047,80.792 169.484,78.786ZM173.266,72.219L168.26,77.453C166.255,73.891 169.927,70.443 173.266,72.219ZM157.354,72.891L162.583,67.547C164.813,71.333 160.917,75.005 157.354,72.891ZM161.135,66.432L156.13,71.667C154.125,68.104 157.802,64.656 161.135,66.432ZM141.328,64.766L146.563,59.422C148.786,63.208 145,66.88 141.328,64.766ZM145.224,58.313L140.219,63.542C138.214,59.979 141.776,56.531 145.224,58.313ZM127.422,56.974L132.651,51.635C134.651,55.531 131.427,58.87 127.422,56.974ZM126.641,51.078C128.313,49.406 129.646,49.521 131.203,50.411L126.198,55.641C125.641,54.193 124.974,52.859 126.641,51.078ZM112.729,48.63L117.849,43.401C120.188,46.516 116.292,51.188 112.729,48.63ZM111.953,42.844C113.62,41.172 114.958,41.505 116.401,42.177L111.505,47.406C110.396,46.182 110.615,44.292 111.953,42.844ZM97.932,34.495C98.823,33.719 99.599,33.495 100.823,33.609C101.604,33.719 101.271,33.271 102.047,34.161C102.714,34.943 102.604,35.385 102.604,35.385L97.932,40.172C96.375,38.505 95.594,36.5 97.932,34.495ZM98.266,40.729L103.385,35.385C105.833,38.948 101.714,43.068 98.266,40.729ZM116.182,139.99L116.182,92.807C119.63,98.26 123.302,103.49 126.307,106.161C134.875,105.495 142.443,104.38 150.453,103.604C157.021,102.932 164.589,107.609 170.708,113.953C174.938,118.401 187.068,130.531 196.75,139.99L116.182,139.99ZM234.693,139.99L213.995,119.516L211.995,121.63L230.464,139.99L229.24,139.99L211.328,122.297L208.656,125.078L223.677,139.99L222.563,139.99L208.099,125.75L205.427,128.531L217.115,140.104L215.891,140.104L204.76,129.083L202.646,131.313L211.438,139.99L210.323,139.99L202.089,131.87L199.75,134.203L205.542,139.88L204.313,139.88L199.198,134.76L196.302,137.766L195.635,137.099L198.526,134.094L178.052,114.51L175.161,117.51L173.38,115.844L176.271,112.839L102.828,41.729L103.385,41.063L176.828,112.172L179.167,109.833L116.958,49.521L117.516,48.854L179.724,109.167L181.839,106.943L132.651,59.203L133.208,58.531L182.505,106.385L185.177,103.604L146.224,65.88L146.781,65.208L185.729,102.932L188.401,100.151L162.141,74.557L162.698,73.891L189.068,99.484L191.073,97.37L173.714,80.568L174.271,79.901L191.74,96.813L192.188,96.37L193.964,98.036L193.521,98.484L213.885,118.292L214.328,117.849L215,118.516L214.552,118.958L235.807,139.99L234.693,139.99ZM391.266,34.161C392.047,33.271 391.714,33.719 392.49,33.609C393.604,33.495 394.385,33.719 395.385,34.495C397.719,36.5 396.943,38.391 395.385,40.172L390.708,35.385C390.823,35.385 390.599,34.943 391.266,34.161ZM389.818,35.385L394.938,40.729C391.599,43.068 387.484,38.948 389.818,35.385ZM389.818,41.063L390.375,41.729L362.557,68.661L361.776,68.214L389.818,41.063ZM381.25,42.844C382.589,44.292 382.807,46.182 381.698,47.406L376.802,42.177C378.245,41.505 379.583,41.172 381.25,42.844ZM375.578,43.401L380.693,48.63C377.021,51.188 373.13,46.516 375.578,43.401ZM366.563,51.078C368.234,52.745 367.563,54.083 367.005,55.641L362,50.411C363.557,49.521 365.005,49.406 366.563,51.078ZM360.667,51.521L365.896,56.865C361.891,58.87 358.661,55.531 360.667,51.521ZM353.099,63.542L348.089,58.313C351.427,56.531 355.099,59.979 353.099,63.542ZM346.755,59.422L351.984,64.766C348.313,66.88 344.531,63.208 346.755,59.422ZM337.182,71.667L332.177,66.432C335.406,64.656 339.078,68.104 337.182,71.667ZM330.729,67.547L335.958,72.891C332.286,75.005 328.505,71.333 330.729,67.547ZM325.057,77.453L320.047,72.219C323.276,70.443 326.948,73.891 325.057,77.453ZM318.599,73.333L323.828,78.677C320.156,80.792 316.375,77.229 318.599,73.333ZM287.667,139.99L293.453,134.318L291.115,131.979L282.88,140.104L281.656,140.104L290.448,131.422L288.333,129.198L277.318,140.104L276.094,140.104L287.776,128.531L285.104,125.75L270.641,139.99L269.417,139.99L284.438,125.078L281.766,122.297L263.849,139.99L262.625,139.99L281.099,121.63L279.094,119.516L258.396,139.99L257.172,139.99L278.427,118.958L277.984,118.516L278.651,117.849L279.094,118.292L299.458,98.484L299.016,98.036L300.797,96.37L301.573,96.813L319.047,79.901L319.604,80.568L302.13,97.484L304.135,99.599L330.505,74L331.063,74.672L304.693,100.266L307.359,103.047L346.307,65.323L346.865,65.99L307.917,103.714L310.589,106.495L359.885,58.755L360.443,59.422L311.146,107.161L313.26,109.391L375.464,49.073L376.021,49.745L313.818,110.057L316.151,112.396L358.438,71.443L353.766,77.229L316.708,113.063L319.604,116.068L317.823,117.734L314.927,114.729L294.563,134.536L297.458,137.542L296.792,138.208L293.896,135.208L288.776,140.323L287.667,140.323L287.667,139.99ZM296.677,139.99C306.359,130.422 318.49,118.292 322.719,113.953C328.839,107.609 336.406,102.932 342.969,103.604C350.984,104.38 358.552,105.495 367.12,106.161C368.568,104.938 370.125,103.047 371.792,100.823L371.792,139.99L296.677,139.99Z" style="fill:rgb(52,52,52);"/>
            </g>
        </g>
        <path d="M198.526,40.953L243.932,14.802L289.333,40.953L311.37,53.969L324.052,46.406L263.849,11.573L243.932,0L223.677,11.682L166.927,44.734L179.5,52.193L198.526,40.953Z" style="fill:rgb(52,52,52);"/>
        <path d="M147.339,54.193L149.901,55.417L150.234,54.417C152.125,53.635 156.24,55.641 157.354,50.521C157.911,47.849 155.688,45.734 152.792,44.51C147.448,42.063 143.776,47.297 146.448,51.078C147.896,52.969 148.677,52.411 147.339,54.193Z" style="fill:rgb(52,52,52);"/>
        <path d="M178.729,113.854L181.052,111.458L201.438,131.198L199.115,133.594L178.729,113.854Z" style="fill:rgb(52,52,52);"/>
        <path d="M181.594,110.906L183.682,108.75L204.068,128.49L201.974,130.646L181.594,110.906Z" style="fill:rgb(52,52,52);"/>
        <path d="M184.271,108.099L186.979,105.302L207.365,125.042L204.656,127.839L184.271,108.099Z" style="fill:rgb(52,52,52);"/>
        <path d="M187.547,104.641L190.26,101.844L210.641,121.583L207.932,124.38L187.547,104.641Z" style="fill:rgb(52,52,52);"/>
        <path d="M190.901,101.276L192.911,99.198L213.297,118.938L211.281,121.016L190.901,101.276Z" style="fill:rgb(52,52,52);"/>
        <path d="M161.583,61.318L164.141,62.651L164.589,61.87C167.036,62.094 169.927,62.651 171.151,58.646C171.932,56.198 170.266,53.969 167.37,52.411C161.474,49.406 156.354,54.859 161.917,60.427L161.583,61.318Z" style="fill:rgb(52,52,52);"/>
        <path d="M321.938,58.531C323.161,62.427 326.057,61.87 328.505,61.76L328.948,62.542L331.51,61.203L331.063,60.313C336.63,54.641 331.51,49.297 325.609,52.302C322.828,53.859 321.161,56.198 321.938,58.531Z" style="fill:rgb(52,52,52);"/>
        <path d="M342.969,54.526L343.307,55.531L345.865,54.307C344.531,52.526 345.417,53.193 346.755,51.188C349.427,47.516 345.755,42.177 340.411,44.625C337.521,45.958 335.292,48.073 335.849,50.635C336.964,55.641 341.078,53.75 342.969,54.526Z" style="fill:rgb(52,52,52);"/>
        <path d="M279.948,118.917L300.328,99.172L302.344,101.255L281.958,120.995L279.948,118.917Z" style="fill:rgb(52,52,52);"/>
        <path d="M289.203,128.484L309.589,108.74L311.677,110.896L291.297,130.641L289.203,128.484Z" style="fill:rgb(52,52,52);"/>
        <path d="M285.87,125.078L306.255,105.333L308.964,108.13L288.578,127.875L285.87,125.078Z" style="fill:rgb(52,52,52);"/>
        <path d="M282.589,121.599L302.969,101.854L305.682,104.651L285.297,124.396L282.589,121.599Z" style="fill:rgb(52,52,52);"/>
        <path d="M291.839,131.255L312.219,111.51L314.542,113.911L294.161,133.656L291.839,131.255Z" style="fill:rgb(52,52,52);"/>
        <path d="M244.375,66.88L226.573,64.656L235.917,106.719L238.922,78.563L257.172,82.682L256.615,42.396L244.49,42.62L244.375,66.88Z" style="fill:rgb(52,52,52);"/>
        <g>
            <clipPath id="_clip2">
                <rect x="76" y="207.026" width="337.333" height="100"/>
            </clipPath>
            <g clip-path="url(#_clip2)">
                <path d="M76.896,177.156L103.271,177.156L103.271,226.344L243.818,307.469L384.37,226.344L384.37,177.156L413.078,177.156L413.078,173.036L76.896,173.036L76.896,177.156ZM371.682,219L243.932,292.776L116.182,219L116.182,177.156L371.682,177.156L371.682,219Z" style="fill:rgb(52,52,52);"/>
            </g>
        </g>
        <rect x="171.042" y="244.479" width="30.271" height="0.781" style="fill:rgb(52,52,52);"/>
        <rect x="282.99" y="244.479" width="30.937" height="0.781" style="fill:rgb(52,52,52);"/>
        <path d="M239.813,273.193L244.708,269.63L249.719,273.193L247.828,267.406L252.724,263.844L246.604,263.844L244.708,258.057L242.927,263.844L236.807,263.844L241.703,267.406L239.813,273.193Z" style="fill:rgb(52,52,52);"/>
        <g transform="matrix(1.53653,0,0,1.53653,6e-06,109.392)">
            <path d="M45.761,18.405L45.761,58.668L33.127,58.668L33.127,42.977L21.131,42.977L21.131,58.668L8.511,58.668L8.511,18.405L21.131,18.405L21.131,32.913L33.127,32.913L33.127,18.405L45.761,18.405ZM77.247,52.587L63.834,52.587L61.838,58.668L48.591,58.668L63.323,18.405L77.871,18.405L92.545,58.668L79.247,58.668L77.247,52.587ZM74.18,43.089L70.543,31.886L66.906,43.089L74.18,43.089ZM115.629,58.668L108.063,44.228L108.005,44.228L108.005,58.668L95.386,58.668L95.386,18.405L114.144,18.405C117.408,18.405 120.195,18.982 122.5,20.141C124.815,21.297 126.55,22.87 127.706,24.859C128.862,26.849 129.442,29.096 129.442,31.595C129.442,34.286 128.693,36.679 127.194,38.771C125.703,40.855 123.557,42.35 120.751,43.255L129.499,58.668L115.629,58.668ZM108.005,35.801L113.019,35.801C114.229,35.801 115.137,35.527 115.741,34.981C116.351,34.435 116.656,33.574 116.656,32.398C116.656,31.334 116.341,30.503 115.71,29.9C115.09,29.29 114.195,28.985 113.019,28.985L108.005,28.985L108.005,35.801ZM181.863,18.405L181.863,58.668L169.298,58.668L169.298,38.591L163.105,58.668L152.305,58.668L146.099,38.591L146.099,58.668L133.479,58.668L133.479,18.405L148.946,18.405L157.817,42.577L166.45,18.405L181.863,18.405ZM207.164,59.068C203.371,59.068 199.89,58.18 196.724,56.404C193.558,54.617 191.046,52.15 189.185,49.004C187.334,45.858 186.409,42.313 186.409,38.371C186.409,34.425 187.334,30.883 189.185,27.734C191.046,24.588 193.558,22.134 196.724,20.375C199.89,18.609 203.371,17.724 207.164,17.724C210.96,17.724 214.425,18.609 217.563,20.375C220.709,22.134 223.204,24.588 225.044,27.734C226.888,30.883 227.81,34.425 227.81,38.371C227.81,42.313 226.888,45.858 225.044,49.004C223.204,52.15 220.702,54.617 217.536,56.404C214.37,58.18 210.913,59.068 207.164,59.068ZM207.164,47.296C209.662,47.296 211.594,46.492 212.953,44.879C214.323,43.269 215.008,41.099 215.008,38.371C215.008,35.601 214.323,33.411 212.953,31.801C211.594,30.191 209.662,29.388 207.164,29.388C204.618,29.388 202.666,30.191 201.306,31.801C199.944,33.411 199.266,35.601 199.266,38.371C199.266,41.099 199.944,43.269 201.306,44.879C202.666,46.492 204.618,47.296 207.164,47.296ZM270.958,58.668L258.338,58.668L244.969,38.425L244.969,58.668L232.349,58.668L232.349,18.405L244.969,18.405L258.338,38.994L258.338,18.405L270.958,18.405L270.958,58.668ZM315.301,18.405L300.865,46.435L300.865,58.668L288.231,58.668L288.231,46.435L273.791,18.405L288.231,18.405L294.658,32.676L301.085,18.405L315.301,18.405Z" style="fill:none;fill-rule:nonzero;stroke:rgb(52,52,52);stroke-width:10.66px;"/>
        </g>
        <g transform="matrix(1,0,0,1,8.70698,199.534)">
            <g>
                <g>
                    <path d="M61.604,-61.854L61.604,0L42.208,0L42.208,-24.125L23.771,-24.125L23.771,0L4.375,0L4.375,-61.854L23.771,-61.854L23.771,-39.583L42.208,-39.583L42.208,-61.854L61.604,-61.854Z" style="fill:rgb(255,90,58);fill-rule:nonzero;"/>
                </g>
            </g>
        </g>
        <g transform="matrix(1,0,0,1,74.6623,199.534)">
            <g>
                <g>
                    <path d="M44.042,-9.354L23.417,-9.354L20.354,0L0,0L22.625,-61.854L45,-61.854L67.542,0L47.104,0L44.042,-9.354ZM39.313,-23.937L33.729,-41.146L28.125,-23.937L39.313,-23.937Z" style="fill:rgb(255,90,58);fill-rule:nonzero;"/>
                </g>
            </g>
        </g>
        <g transform="matrix(1,0,0,1,142.19,199.534)">
            <g>
                <g>
                    <path d="M35.479,0L23.854,-22.187L23.771,-22.187L23.771,0L4.375,0L4.375,-61.854L33.208,-61.854C38.208,-61.854 42.484,-60.964 46.042,-59.187C49.594,-57.422 52.26,-55.005 54.042,-51.937C55.818,-48.88 56.708,-45.427 56.708,-41.583C56.708,-37.458 55.552,-33.792 53.25,-30.583C50.958,-27.375 47.651,-25.073 43.333,-23.687L56.792,0L35.479,0ZM23.771,-35.125L31.458,-35.125C33.318,-35.125 34.714,-35.547 35.646,-36.396C36.573,-37.24 37.042,-38.568 37.042,-40.375C37.042,-42 36.563,-43.276 35.604,-44.208C34.646,-45.135 33.26,-45.604 31.458,-45.604L23.771,-45.604L23.771,-35.125Z" style="fill:rgb(255,90,58);fill-rule:nonzero;"/>
                </g>
            </g>
        </g>
        <g transform="matrix(1,0,0,1,200.72,199.534)">
            <g>
                <g>
                    <path d="M78.729,-61.854L78.729,0L59.417,0L59.417,-30.833L49.896,0L33.292,0L23.771,-30.833L23.771,0L4.375,0L4.375,-61.854L28.125,-61.854L41.771,-24.729L55.042,-61.854L78.729,-61.854Z" style="fill:rgb(255,90,58);fill-rule:nonzero;"/>
                </g>
            </g>
        </g>
        <g transform="matrix(1,0,0,1,283.797,199.534)">
            <g>
                <g>
                    <path d="M34.521,0.604C28.688,0.604 23.339,-0.76 18.479,-3.5C13.615,-6.234 9.755,-10.021 6.896,-14.854C4.047,-19.687 2.625,-25.13 2.625,-31.187C2.625,-37.24 4.047,-42.687 6.896,-47.521C9.755,-52.365 13.615,-56.146 18.479,-58.854C23.339,-61.562 28.688,-62.917 34.521,-62.917C40.339,-62.917 45.667,-61.562 50.5,-58.854C55.333,-56.146 59.156,-52.365 61.979,-47.521C64.813,-42.687 66.229,-37.24 66.229,-31.187C66.229,-25.13 64.813,-19.687 61.979,-14.854C59.156,-10.021 55.318,-6.234 50.458,-3.5C45.594,-0.76 40.281,0.604 34.521,0.604ZM34.521,-17.479C38.354,-17.479 41.318,-18.714 43.417,-21.187C45.51,-23.656 46.563,-26.99 46.563,-31.187C46.563,-35.437 45.51,-38.797 43.417,-41.271C41.318,-43.755 38.354,-45 34.521,-45C30.615,-45 27.615,-43.755 25.521,-41.271C23.422,-38.797 22.375,-35.437 22.375,-31.187C22.375,-26.99 23.422,-23.656 25.521,-21.187C27.615,-18.714 30.615,-17.479 34.521,-17.479Z" style="fill:rgb(255,90,58);fill-rule:nonzero;"/>
                </g>
            </g>
        </g>
        <g transform="matrix(1,0,0,1,352.635,199.534)">
            <g>
                <g>
                    <path d="M63.688,0L44.292,0L23.771,-31.104L23.771,0L4.375,0L4.375,-61.854L23.771,-61.854L44.292,-30.229L44.292,-61.854L63.688,-61.854L63.688,0Z" style="fill:rgb(255,90,58);fill-rule:nonzero;"/>
                </g>
            </g>
        </g>
        <g transform="matrix(1,0,0,1,420.687,199.534)">
            <g>
                <g>
                    <path d="M63.792,-61.854L41.583,-18.792L41.583,0L22.188,0L22.188,-18.792L0,-61.854L22.188,-61.854L32.063,-39.937L41.938,-61.854L63.792,-61.854Z" style="fill:rgb(255,90,58);fill-rule:nonzero;"/>
                </g>
            </g>
        </g>
        <g transform="matrix(1,0,0,1,159.653,229.956)">
            <g>
                <g>
                    <path d="M13.542,-10.875L13.542,0L10.521,0L10.521,-6L8.479,0L5.958,0L3.875,-6.042L3.875,0L0.854,0L0.854,-10.875L4.521,-10.875L7.25,-3.812L9.917,-10.875L13.542,-10.875Z" style="fill:rgb(52,52,52);fill-rule:nonzero;"/>
                </g>
            </g>
        </g>
        <g transform="matrix(1,0,0,1,177.36,229.956)">
            <g>
                <g>
                    <path d="M3.833,-10.875L3.833,-4.562C3.833,-3.979 3.964,-3.526 4.229,-3.208C4.505,-2.885 4.922,-2.729 5.479,-2.729C6.031,-2.729 6.448,-2.885 6.729,-3.208C7.005,-3.542 7.146,-3.99 7.146,-4.562L7.146,-10.875L10.167,-10.875L10.167,-4.562C10.167,-3.562 9.958,-2.708 9.542,-2C9.125,-1.302 8.547,-0.776 7.813,-0.417C7.089,-0.068 6.292,0.104 5.417,0.104C4.526,0.104 3.734,-0.068 3.042,-0.417C2.344,-0.776 1.797,-1.302 1.396,-2C1.005,-2.708 0.813,-3.562 0.813,-4.562L0.813,-10.875L3.833,-10.875Z" style="fill:rgb(52,52,52);fill-rule:nonzero;"/>
                </g>
            </g>
        </g>
        <g transform="matrix(1,0,0,1,191.634,229.956)">
            <g>
                <g>
                    <path d="M4.958,0.104C3.693,0.104 2.651,-0.193 1.833,-0.792C1.026,-1.385 0.594,-2.25 0.542,-3.375L3.771,-3.375C3.797,-3 3.906,-2.719 4.104,-2.542C4.297,-2.375 4.547,-2.292 4.854,-2.292C5.13,-2.292 5.359,-2.359 5.542,-2.5C5.719,-2.635 5.813,-2.823 5.813,-3.062C5.813,-3.38 5.656,-3.625 5.354,-3.792C5.063,-3.969 4.583,-4.172 3.917,-4.396C3.208,-4.63 2.63,-4.859 2.188,-5.083C1.755,-5.302 1.375,-5.625 1.042,-6.042C0.719,-6.469 0.563,-7.031 0.563,-7.729C0.563,-8.422 0.734,-9.021 1.083,-9.521C1.443,-10.021 1.927,-10.396 2.542,-10.646C3.167,-10.906 3.865,-11.042 4.646,-11.042C5.906,-11.042 6.917,-10.74 7.667,-10.146C8.427,-9.562 8.833,-8.734 8.875,-7.667L5.604,-7.667C5.589,-7.984 5.484,-8.229 5.292,-8.396C5.109,-8.562 4.865,-8.646 4.563,-8.646C4.339,-8.646 4.151,-8.573 4,-8.437C3.859,-8.312 3.792,-8.125 3.792,-7.875C3.792,-7.667 3.865,-7.484 4.021,-7.333C4.188,-7.193 4.385,-7.068 4.625,-6.958C4.859,-6.844 5.208,-6.714 5.667,-6.562C6.359,-6.312 6.927,-6.068 7.375,-5.833C7.818,-5.609 8.198,-5.292 8.521,-4.875C8.854,-4.458 9.021,-3.927 9.021,-3.292C9.021,-2.651 8.854,-2.073 8.521,-1.562C8.198,-1.047 7.734,-0.635 7.125,-0.333C6.51,-0.042 5.792,0.104 4.958,0.104Z" style="fill:rgb(52,52,52);fill-rule:nonzero;"/>
                </g>
            </g>
        </g>
        <g transform="matrix(1,0,0,1,204.492,229.956)">
            <g>
                <g>
                    <rect x="0.854" y="-10.875" width="3.021" height="10.875" style="fill:rgb(52,52,52);fill-rule:nonzero;"/>
                </g>
            </g>
        </g>
        <g transform="matrix(1,0,0,1,212.547,229.956)">
            <g>
                <g>
                    <path d="M0.5,-5.458C0.5,-6.526 0.719,-7.479 1.167,-8.312C1.609,-9.156 2.24,-9.812 3.063,-10.271C3.88,-10.74 4.823,-10.979 5.896,-10.979C7.255,-10.979 8.396,-10.615 9.313,-9.896C10.24,-9.172 10.844,-8.187 11.125,-6.937L7.854,-6.937C7.656,-7.354 7.385,-7.667 7.042,-7.875C6.708,-8.094 6.313,-8.208 5.854,-8.208C5.156,-8.208 4.604,-7.958 4.188,-7.458C3.771,-6.958 3.563,-6.292 3.563,-5.458C3.563,-4.609 3.771,-3.937 4.188,-3.437C4.604,-2.948 5.156,-2.708 5.854,-2.708C6.313,-2.708 6.708,-2.812 7.042,-3.021C7.385,-3.24 7.656,-3.552 7.854,-3.958L11.125,-3.958C10.844,-2.719 10.24,-1.734 9.313,-1C8.396,-0.276 7.255,0.083 5.896,0.083C4.823,0.083 3.88,-0.151 3.063,-0.625C2.24,-1.094 1.609,-1.75 1.167,-2.583C0.719,-3.417 0.5,-4.375 0.5,-5.458Z" style="fill:rgb(52,52,52);fill-rule:nonzero;"/>
                </g>
            </g>
        </g>
        <g transform="matrix(1,0,0,1,233.783,229.956)">
            <g>
                <g>
                    <path d="M7.729,-1.771L3.875,-1.771L3.292,0L0.125,0L4.083,-10.875L7.563,-10.875L11.521,0L8.333,0L7.729,-1.771ZM6.979,-4.083L5.813,-7.604L4.646,-4.083L6.979,-4.083Z" style="fill:rgb(52,52,52);fill-rule:nonzero;"/>
                </g>
            </g>
        </g>
        <g transform="matrix(1,0,0,1,248.719,229.956)">
            <g>
                <g>
                    <path d="M0.5,-5.458C0.5,-6.526 0.719,-7.479 1.167,-8.312C1.609,-9.156 2.24,-9.812 3.063,-10.271C3.88,-10.74 4.823,-10.979 5.896,-10.979C7.255,-10.979 8.396,-10.615 9.313,-9.896C10.24,-9.172 10.844,-8.187 11.125,-6.937L7.854,-6.937C7.656,-7.354 7.385,-7.667 7.042,-7.875C6.708,-8.094 6.313,-8.208 5.854,-8.208C5.156,-8.208 4.604,-7.958 4.188,-7.458C3.771,-6.958 3.563,-6.292 3.563,-5.458C3.563,-4.609 3.771,-3.937 4.188,-3.437C4.604,-2.948 5.156,-2.708 5.854,-2.708C6.313,-2.708 6.708,-2.812 7.042,-3.021C7.385,-3.24 7.656,-3.552 7.854,-3.958L11.125,-3.958C10.844,-2.719 10.24,-1.734 9.313,-1C8.396,-0.276 7.255,0.083 5.896,0.083C4.823,0.083 3.88,-0.151 3.063,-0.625C2.24,-1.094 1.609,-1.75 1.167,-2.583C0.719,-3.417 0.5,-4.375 0.5,-5.458Z" style="fill:rgb(52,52,52);fill-rule:nonzero;"/>
                </g>
            </g>
        </g>
        <g transform="matrix(1,0,0,1,263.701,229.956)">
            <g>
                <g>
                    <path d="M7.729,-1.771L3.875,-1.771L3.292,0L0.125,0L4.083,-10.875L7.563,-10.875L11.521,0L8.333,0L7.729,-1.771ZM6.979,-4.083L5.813,-7.604L4.646,-4.083L6.979,-4.083Z" style="fill:rgb(52,52,52);fill-rule:nonzero;"/>
                </g>
            </g>
        </g>
        <g transform="matrix(1,0,0,1,278.637,229.956)">
            <g>
                <g>
                    <path d="M5.167,-10.875C6.302,-10.875 7.302,-10.646 8.167,-10.187C9.026,-9.729 9.688,-9.083 10.146,-8.25C10.604,-7.427 10.833,-6.49 10.833,-5.437C10.833,-4.396 10.594,-3.458 10.125,-2.625C9.667,-1.802 9.005,-1.156 8.146,-0.687C7.281,-0.229 6.292,0 5.167,0L0.854,0L0.854,-10.875L5.167,-10.875ZM4.938,-2.667C5.813,-2.667 6.5,-2.906 7,-3.396C7.51,-3.88 7.771,-4.562 7.771,-5.437C7.771,-6.339 7.51,-7.031 7,-7.521C6.5,-8.005 5.813,-8.25 4.938,-8.25L3.875,-8.25L3.875,-2.667L4.938,-2.667Z" style="fill:rgb(52,52,52);fill-rule:nonzero;"/>
                </g>
            </g>
        </g>
        <g transform="matrix(1,0,0,1,293.265,229.956)">
            <g>
                <g>
                    <path d="M3.875,-8.458L3.875,-6.667L7.354,-6.667L7.354,-4.375L3.875,-4.375L3.875,-2.417L7.813,-2.417L7.813,0L0.854,0L0.854,-10.875L7.813,-10.875L7.813,-8.458L3.875,-8.458Z" style="fill:rgb(52,52,52);fill-rule:nonzero;"/>
                </g>
            </g>
        </g>
        <g transform="matrix(1,0,0,1,305.015,229.956)">
            <g>
                <g>
                    <path d="M13.542,-10.875L13.542,0L10.521,0L10.521,-6L8.479,0L5.958,0L3.875,-6.042L3.875,0L0.854,0L0.854,-10.875L4.521,-10.875L7.25,-3.812L9.917,-10.875L13.542,-10.875Z" style="fill:rgb(52,52,52);fill-rule:nonzero;"/>
                </g>
            </g>
        </g>
        <g transform="matrix(1,0,0,1,322.722,229.956)">
            <g>
                <g>
                    <path d="M10.75,-10.875L6.917,-3.458L6.917,0L3.875,0L3.875,-3.458L0.063,-10.875L3.521,-10.875L5.417,-6.667L7.333,-10.875L10.75,-10.875Z" style="fill:rgb(52,52,52);fill-rule:nonzero;"/>
                </g>
            </g>
        </g>
    </g>
</svg>
